<svg width="21" height="24" viewBox="0 0 21 24" fill="none" xmlns="http://www.w3.org/2000/svg">
<path d="M9.63609 0.0718746C7.779 0.390665 6.26544 1.7127 5.78249 3.4426C5.663 3.85984 5.64806 4.01923 5.62317 4.92872L5.60325 5.95072H3.92042C2.84997 5.95072 2.18281 5.96947 2.09319 6.00229C1.92391 6.05854 1.69489 6.26013 1.60527 6.41952C1.57042 6.48516 1.52561 6.63049 1.51067 6.74769C1.49075 6.86489 1.13228 10.606 0.704102 15.069C-0.142296 23.9717 -0.112423 23.4185 0.206221 23.7232C0.514907 24.0185 -0.231915 23.9998 10.4924 23.9998C18.6229 23.9998 20.3306 23.9904 20.465 23.9342C20.6891 23.8451 20.943 23.5872 20.9977 23.3857C21.0674 23.1419 19.4991 6.63518 19.3896 6.43359C19.29 6.26013 19.066 6.06323 18.8917 6.00229C18.8021 5.96947 18.1349 5.95072 17.0645 5.95072H15.3816L15.3617 4.92872C15.3368 4.01923 15.3219 3.85984 15.2024 3.4426C14.5502 1.12669 12.1155 -0.350052 9.63609 0.0718746ZM11.2642 1.82521C12.3296 2.08306 13.1959 2.91753 13.4499 3.93485C13.5046 4.1505 13.5295 4.49273 13.5295 5.0928V5.95072H10.4924H7.45537V5.0928C7.45537 4.11299 7.51014 3.81764 7.79393 3.27852C8.02296 2.83784 8.53578 2.33153 9.00378 2.08775C9.67095 1.74083 10.5074 1.64238 11.2642 1.82521ZM5.62317 8.5901C5.63811 9.45739 5.64309 9.50428 5.7576 9.66367C6.1808 10.245 7.05209 10.1794 7.36078 9.53709C7.44044 9.3777 7.45537 9.22299 7.45537 8.51509V7.6853H10.4924H13.5295V8.51509C13.5295 9.22299 13.5445 9.3777 13.6241 9.53709C13.9328 10.1794 14.8041 10.245 15.2273 9.66367C15.3418 9.50428 15.3468 9.45739 15.3617 8.5901L15.3816 7.6853L16.5566 7.69468L17.7366 7.70874L18.4187 14.8581C18.7921 18.7913 19.1008 22.0636 19.1058 22.1339V22.2652H10.4924C5.75262 22.2652 1.8791 22.2511 1.87412 22.2277C1.87412 22.2089 2.18281 18.932 2.5612 14.9424L3.24828 7.6853H4.42825H5.60325L5.62317 8.5901Z" fill="black"/>
<path d="M15.6542 7.87369C15.7142 7.87648 15.7567 7.90431 15.8115 7.92133C15.8514 7.9337 15.8972 7.91059 15.9339 7.93352C15.9617 7.95087 16.0245 7.95009 16.0569 7.9529C16.1159 7.95803 16.1733 7.9734 16.2325 7.9734C16.3568 7.9734 16.392 8.1158 16.392 8.21769C16.392 8.26551 16.412 8.30575 16.412 8.35452C16.412 8.39201 16.412 8.42949 16.412 8.46698C16.412 8.60146 16.3821 8.72792 16.3821 8.86084C16.3821 8.95379 16.402 9.03851 16.402 9.13006C16.402 9.16959 16.3933 9.21932 16.4042 9.25747C16.4193 9.31026 16.4484 9.36173 16.4607 9.41424C16.4703 9.45504 16.4618 9.50888 16.4618 9.55051C16.4618 9.64547 16.4712 9.7384 16.4718 9.83359C16.4725 9.92937 16.5017 10.0229 16.5017 10.1172C16.5017 10.1397 16.508 10.1718 16.4967 10.192C16.4821 10.2183 16.4918 10.2646 16.4918 10.2939C16.4918 10.3845 16.5234 10.4413 16.5638 10.5205C16.6052 10.6018 16.6712 10.6643 16.6712 10.7576C16.6712 10.8495 16.6712 10.9415 16.6712 11.0335C16.6712 11.0706 16.6767 11.1307 16.6912 11.1642C16.7108 11.2096 16.7012 11.2702 16.7012 11.3187C16.7012 11.4353 16.6924 11.5429 16.669 11.655C16.6545 11.7247 16.6363 11.7854 16.6319 11.8577C16.6292 11.9023 16.6187 11.9424 16.612 11.9863C16.6055 12.0284 16.6015 12.0485 16.5815 12.0018" stroke="black" stroke-width="3" stroke-linecap="round"/>
<path d="M13.6433 11.4148C13.6237 11.5578 13.6827 11.6339 13.7828 11.7248C13.8511 11.7869 13.9138 11.8965 13.9995 11.9369C14.0827 11.976 14.2935 11.6654 14.3482 11.6108C14.3696 11.5894 14.4231 11.6032 14.45 11.5995C14.5054 11.5918 14.5465 11.5521 14.6026 11.5505C14.6653 11.5486 14.7121 11.4996 14.7732 11.4996C14.8302 11.4996 14.8818 11.474 14.9381 11.4675C14.9662 11.4643 15.0074 11.4738 15.0342 11.4619C15.1094 11.4285 15.2134 11.4487 15.2962 11.4487C15.3807 11.4487 15.4652 11.4487 15.5497 11.4487C15.661 11.4487 15.6934 11.4211 15.79 11.3714C15.8302 11.3508 16.0461 11.2252 15.9889 11.2103C15.8533 11.1749 15.7228 11.1773 15.5837 11.1773C15.1631 11.1773 14.739 11.1723 14.3218 11.1942C14.2481 11.1981 14.1732 11.1942 14.0994 11.1942C14.0068 11.1942 13.9125 11.1998 13.8223 11.1745C13.7312 11.1489 13.6562 11.0902 13.5679 11.0585C13.4486 11.0158 13.3596 10.7789 13.3248 10.6656C13.2877 10.5451 13.2533 10.4167 13.2202 10.2952C13.1317 9.97072 13.0555 9.65088 12.961 9.33209C12.9396 9.25973 12.9139 9.19277 12.9139 9.11629C12.9139 9.03704 12.7494 9.08635 12.6952 9.09838C12.3903 9.16615 12.0698 9.14173 11.7585 9.14173C11.3235 9.14173 10.8895 9.15169 10.4561 9.10686C10.205 9.08089 9.95278 9.04464 9.70222 9.01357C9.55375 8.99515 9.39958 9.00603 9.24988 9.00603" stroke="black" stroke-width="3" stroke-linecap="round"/>
<path d="M14.2387 9.09423C14.2387 9.36766 14.1409 8.9821 14.1104 8.89222C14.0741 8.78519 14.0571 8.64607 14.0078 8.54754C13.9425 8.41691 13.9501 8.91808 13.9501 8.9788C13.9501 9.1327 13.9501 9.28661 13.9501 9.44051" stroke="black" stroke-width="3" stroke-linecap="round"/>
<path d="M7.65277 7.63089C7.64421 7.6876 7.64245 7.746 7.64555 7.80332C7.64841 7.85627 7.67953 7.89646 7.69014 7.94688C7.69492 7.96957 7.70201 7.97527 7.71563 7.9936C7.75038 8.04038 7.74334 8.12577 7.73007 8.17962C7.68087 8.37922 7.531 8.53093 7.52323 8.74067C7.51841 8.87076 7.49868 9.00739 7.58396 9.114" stroke="black" stroke-width="3" stroke-linecap="round"/>
<path d="M4.75054 8.69844C4.80649 8.8698 4.84872 9.01131 4.84872 9.18936C4.84872 9.46761 4.91469 9.22447 4.86508 9.06663C4.79372 8.83956 4.60292 8.62361 4.43144 8.46116C4.25373 8.2928 4.2322 8.89926 4.21053 8.99026C4.04618 9.6805 4.01416 10.4478 4.01416 11.153" stroke="black" stroke-width="3" stroke-linecap="round"/>
<path d="M4.65236 11.1039C4.336 11.6101 4.19871 12.2022 3.97053 12.7512C3.701 13.3998 3.69659 13.9341 3.91326 14.5949C4.07079 15.0754 4.45906 15.3942 4.62509 15.8685C4.81529 16.412 4.82156 16.9867 4.79963 17.5568C4.77996 18.0682 4.13002 18.5379 3.85598 18.9313C3.37054 19.6282 3.10917 20.361 2.92869 21.1732C2.87573 21.4115 2.66072 21.6691 2.61232 21.255C2.52408 20.5001 2.51579 19.6171 2.72687 18.8822C2.83332 18.5116 2.82896 18.0512 2.98324 17.704C3.07484 17.4979 3.16908 17.2086 3.17961 16.984C3.19539 16.6473 3.15433 16.3055 3.18233 15.9695C3.20227 15.7303 3.72609 15.4589 3.88871 15.2767C4.06448 15.0799 4.20885 14.8561 4.38508 14.6631C4.74291 14.2712 5.09639 13.8485 5.35055 13.384C5.64357 12.8485 6.05958 12.3812 6.25057 11.7858C6.36359 11.4334 6.48383 11.0483 6.56421 10.6866C6.60553 10.5007 7.01927 10.8378 7.10967 10.883C7.66145 11.1589 8.24137 11.321 8.83607 11.4885C9.07859 11.5568 9.41395 11.6696 9.65972 11.693C9.77792 11.7043 9.94781 11.7177 10.0634 11.6821C10.4005 11.5784 10.6908 11.5457 11.0452 11.5457C11.2934 11.5457 11.5416 11.5457 11.7898 11.5457C11.9688 11.5457 11.967 11.5584 11.967 11.7176C11.967 12.1903 11.967 12.663 11.967 13.1358C11.967 14.1194 10.2733 13.9022 9.6379 13.9022C8.99516 13.9022 8.35242 13.9022 7.70968 13.9022C7.41084 13.9022 7.1703 13.8588 6.92967 14.0549C6.65936 14.2751 6.3769 14.5357 6.22875 14.8567C6.14279 15.043 6.03412 15.2755 6.02693 15.484C6.01672 15.7801 6.87347 15.6204 7.05785 15.6204C7.79605 15.6204 8.53424 15.6204 9.27244 15.6204C9.75814 15.6204 10.3768 15.5081 10.8488 15.6313C11.0551 15.6851 11.7707 16.0475 11.7707 16.2858C11.7707 16.4944 11.7958 16.7202 11.7652 16.9267C11.7152 17.2643 11.4429 17.3992 11.1788 17.5595C10.5194 17.9599 9.7176 17.6909 8.99425 17.8022C8.76193 17.838 8.58396 17.9288 8.37242 18.004C8.08013 18.108 7.72346 18.0691 7.41786 18.1622C7.16407 18.2396 6.89667 18.3049 6.63239 18.3231C6.30641 18.3456 6.0596 18.5175 5.75965 18.6122C5.41165 18.7221 4.81245 19.3177 4.74782 19.6732C4.72364 19.8061 4.6227 19.9484 4.57599 20.0768C4.5196 20.2319 4.56363 20.4069 4.51599 20.5677C4.46861 20.7276 4.4385 21.3717 4.57599 21.4786C4.75286 21.6162 5.16344 21.5605 5.36964 21.5605C5.78054 21.5605 6.1061 21.5795 6.41421 21.2714C6.74007 20.9455 6.86616 21.1186 7.27604 21.1186C7.62514 21.1186 7.97423 21.1186 8.32333 21.1186C8.54636 21.1186 8.74191 21.0345 8.96152 21.1077C9.33123 21.231 9.73684 21.3018 10.1206 21.3586C10.4847 21.4126 10.8382 21.5605 11.2034 21.5605C11.318 21.5605 11.3882 21.6556 11.4979 21.6586C11.6833 21.6638 11.869 21.6544 12.0543 21.6586C12.2892 21.664 12.5379 21.7277 12.7634 21.7841C12.9773 21.8376 13.2205 21.8016 13.4398 21.8059C13.6361 21.8098 13.9198 21.827 14.0971 21.9041C14.3298 22.0053 14.6087 21.9421 14.858 21.9559C15.5243 21.9929 16.1501 22.1574 16.808 22.2423C17.0039 22.2676 17.6503 22.4385 17.7217 22.1387C17.794 21.835 17.807 21.5419 17.9071 21.2386C17.9747 21.0339 18.0053 20.8872 18.0053 20.6768C18.0053 19.1968 18.0053 17.7168 18.0053 16.2367C18.0053 15.6549 18.0053 15.0731 18.0053 14.4913C18.0053 14.3229 18.0486 14.082 17.9944 13.924C17.9127 13.6856 16.8034 13.9925 16.6471 14.0385C16.0749 14.2068 15.4034 14.3221 14.8089 14.3413C14.1028 14.364 13.3935 14.344 12.687 14.344C12.4918 14.344 12.2264 14.2644 12.2152 14.5213C12.2031 14.8005 12.2125 15.0818 12.2125 15.3613C12.2125 15.5752 12.1615 15.8684 12.2452 16.0731C12.455 16.5859 13.0943 16.5531 13.5489 16.5531C14.232 16.5531 15.2069 16.3576 15.7962 16.7877C16.1519 17.0472 16.4045 17.637 16.1071 18.0477C15.9481 18.2673 15.6857 18.46 15.4689 18.6177C15.295 18.7442 14.9763 19.1068 14.7625 19.1495C14.4685 19.2083 14.0843 19.1675 13.7889 19.1441C13.3659 19.1106 12.9476 19.1059 12.5234 19.1059C12.1494 19.1059 11.7996 19.0026 11.427 19.0077C11.0263 19.0132 10.6429 19.1447 10.2434 19.155C9.37919 19.1771 8.51867 19.2041 7.65241 19.2041C7.45828 19.2041 7.54804 19.5247 7.60332 19.6432C7.73692 19.9294 8.10675 20.168 8.37242 20.3086C9.54464 20.9292 10.8839 20.8732 12.1634 20.8732C12.6491 20.8732 13.0277 20.7243 13.4889 20.6059C14.026 20.468 14.5765 20.431 15.1144 20.2732C15.3526 20.2033 16.9209 19.788 16.9717 20.1177C17.0066 20.3451 16.851 20.5051 16.7289 20.6795C16.694 20.7295 16.524 21.0923 16.5435 21.1459C16.5914 21.2776 16.873 21.4429 16.9853 21.5223C17.2672 21.7215 17.2243 21.8316 17.2198 22.1823C17.2099 22.9599 16.3076 22.0719 16.0416 21.8059" stroke="black" stroke-width="3" stroke-linecap="round"/>
<path d="M17.0726 11.2512C17.6529 11.263 17.9745 11.853 17.7108 12.3803" stroke="black" stroke-width="3" stroke-linecap="round"/>
<path d="M11.427 15.4731L11.6725 15.5222" stroke="black" stroke-width="3" stroke-linecap="round"/>
</svg>
