<svg width="1273" height="1609" viewBox="0 0 1273 1609" fill="none" xmlns="http://www.w3.org/2000/svg">
<path d="M711.223 175.964L711.76 352.594L787.445 449.241C829.313 502.563 906.072 599.877 958.139 665.863C1065.49 801.835 1076.23 822.498 1076.23 890.484C1076.23 927.143 1073.01 941.807 1057.44 981.132C1036.51 1033.12 981.22 1103.77 944.72 1125.77C894.263 1155.76 826.63 1131.1 761.68 1059.78L728.937 1023.12L658.62 1111.11L587.766 1199.75L607.626 1223.08C659.693 1285.07 731.084 1336.39 802.475 1363.05C852.395 1382.38 939.889 1384.38 982.294 1367.72C1075.69 1330.39 1158.89 1251.08 1217.4 1140.43C1293.62 997.795 1291.47 817.832 1210.96 645.867C1180.36 579.881 1151.38 537.89 1064.96 433.244C1019.33 377.922 921.102 258.614 847.027 166.632L711.223 1.34363e-05V175.964Z" fill="#FCC330" fill-opacity="0.37"/>
<path d="M533.015 264.609C260.335 596.541 111.112 781.17 96.0823 805.831C66.023 853.821 35.427 926.473 17.7135 989.794C1.61032 1047.78 0.536772 1059.11 0 1139.1C0 1218.41 1.61032 1230.41 15.5664 1277.73C37.0373 1350.39 66.023 1403.04 122.921 1472.36C203.437 1569.67 274.828 1609 373.057 1609C436.396 1609 474.507 1597.67 536.773 1559.68C597.965 1522.35 647.348 1477.03 691.9 1417.04L706.929 1397.04L678.48 1378.38C640.37 1355.05 590.45 1312.39 562.538 1280.4L539.456 1254.41L507.25 1290.4C461.088 1342.39 427.271 1363.72 383.792 1367.72C338.703 1371.72 315.085 1357.72 264.092 1296.4C200.216 1220.41 178.208 1136.43 201.29 1060.45C211.488 1026.45 225.981 1005.79 330.115 873.817L447.668 725.848L448.205 880.483V1035.78H550.192H652.179V830.493C652.179 717.183 653.789 511.892 655.936 373.92C658.083 223.284 657.546 122.638 654.326 122.638C651.642 123.305 597.428 186.625 533.015 264.609Z" fill="#FCC330" fill-opacity="0.29"/>
</svg>
