<svg width="27" height="24" viewBox="0 0 27 24" fill="none" xmlns="http://www.w3.org/2000/svg">
<path d="M0.523567 6.41026L0.523546 6.41056C0.275076 9.95175 1.9653 13.1595 7.01269 18.0695L7.0127 18.0694L7.0144 18.0711C8.30816 19.3417 9.86269 20.7253 11.149 21.7901C11.7926 22.3229 12.3635 22.7713 12.7977 23.0843C13.0158 23.2415 13.1916 23.3588 13.3207 23.4348C13.3671 23.4621 13.403 23.4813 13.4292 23.4942C13.5448 23.4767 13.7193 23.4122 14.0722 23.1725C14.5062 22.8777 15.1441 22.365 16.1975 21.4808L16.1986 21.4798C18.8529 19.2651 22.1144 16.0686 23.4645 14.3454L23.4652 14.3444C26.8645 10.0263 27.3601 5.88281 25.1858 3.08785C23.7698 1.29583 20.9477 0.222408 18.6077 0.619827L18.6074 0.619879C17.0102 0.890114 15.8381 1.45557 14.8031 2.44622C14.803 2.44627 14.8029 2.44632 14.8029 2.44637L13.8767 3.33591L13.5476 3.65188L13.2029 3.35317L12.0112 2.32062L12.0112 2.32064L12.0072 2.31712C10.2169 0.732206 7.79617 0.138279 5.58058 0.717276C2.58396 1.50637 0.714966 3.65905 0.523567 6.41026ZM13.4737 23.5136C13.4737 23.5134 13.4712 23.5125 13.4668 23.5112C13.4716 23.5131 13.4738 23.5137 13.4737 23.5136ZM12.4649 5.17054L12.4667 5.17808L12.4683 5.18568C12.5084 5.37424 12.6844 5.77936 12.871 6.06697C13.013 6.28394 13.0819 6.34068 13.1222 6.36355C13.1564 6.38297 13.2248 6.40964 13.4547 6.40964C13.7582 6.40964 13.8849 6.35218 13.9892 6.25402C14.1293 6.1221 14.2857 5.86164 14.5017 5.30462L14.502 5.30401C15.2397 3.40955 16.9698 2.27609 18.7987 1.99807C20.6277 1.72005 22.6227 2.28695 23.9061 3.87111L23.9061 3.87116C24.8941 5.0909 25.1908 6.59723 24.8567 8.26303C24.5259 9.91232 23.5783 11.7238 22.0761 13.6273C20.7801 15.2838 17.3112 18.7254 15.1754 20.5025C15.175 20.5028 15.1746 20.5031 15.1742 20.5035L13.9093 21.5696L13.6351 21.8007L13.3282 21.615L12.799 21.2948C12.4984 21.1133 11.9339 20.6331 11.2777 20.0396C10.6041 19.4303 9.79027 18.6609 8.97045 17.8626C7.34059 16.2753 5.65193 14.5393 5.00399 13.717L5.00367 13.7166C4.29134 12.8106 3.38663 11.4713 2.97396 10.7315L2.97381 10.7316L2.96773 10.72C2.63341 10.082 2.42286 9.6738 2.31625 9.17212C2.213 8.68628 2.21075 8.12714 2.21075 7.19448C2.21075 6.32221 2.22369 5.76731 2.29327 5.35169C2.3692 4.89819 2.51169 4.61307 2.7218 4.2769L2.72701 4.26857L2.73255 4.26044C3.01414 3.84699 3.47598 3.42025 3.97106 3.06201C4.46973 2.70116 5.04388 2.37963 5.57675 2.19909L5.57674 2.19906L5.582 2.19734C6.12665 2.0195 6.92726 1.95858 7.67248 1.9815C8.41073 2.00421 9.20026 2.11226 9.716 2.33714C10.2616 2.56339 10.8878 3.06772 11.3834 3.57323C11.638 3.83291 11.8731 4.1081 12.0592 4.37118C12.2376 4.62356 12.3996 4.9045 12.4649 5.17054Z" fill="black" stroke="black"/>
<path d="M16.0893 4.57968C15.6817 4.64293 15.0584 5.01809 15.0584 5.51242C15.0584 5.81911 14.9202 5.99938 14.8593 6.27334C14.7972 6.55272 15.1279 6.17927 15.2166 6.0797C15.4719 5.7931 15.7278 5.49624 15.9911 5.21787C16.1419 5.05848 16.2896 4.84495 16.403 4.65604C16.4951 4.5024 16.6021 4.384 16.7057 4.23331C16.7552 4.16129 16.8891 3.89659 16.973 3.89239C17.2079 3.88065 17.4444 3.90482 17.6793 3.88967C18.0725 3.8643 18.4523 3.77163 18.7403 3.49966C18.7971 3.44597 18.8497 3.45057 18.9257 3.45057C19.174 3.45057 19.3815 3.38232 19.6212 3.33329C19.8447 3.28757 20.0745 3.32196 20.2976 3.27602C20.3989 3.25516 20.4759 3.20511 20.5812 3.20511C20.8085 3.20511 20.8506 3.29739 20.9876 3.43966C21.1138 3.57068 21.2931 3.66177 21.4021 3.79421C21.6429 4.08661 21.8869 4.37391 22.1167 4.67786C22.2748 4.8869 22.5219 5.16106 22.6158 5.41151C22.6794 5.58119 22.8522 5.68911 22.9158 5.85879C22.9702 6.00385 23.1424 6.13687 23.1585 6.29789C23.1749 6.46151 23.1585 6.63546 23.1585 6.79972C23.1585 7.13972 23.1585 7.47973 23.1585 7.81973C23.1585 8.15063 23.2248 8.52098 23.0222 8.80157C22.9086 8.95876 22.6963 9.2234 22.6703 9.41794C22.6504 9.56757 22.5769 9.7716 22.4931 9.90341C22.1445 10.4512 21.9961 11.2165 21.3694 11.5507C21.2218 11.6295 21.0791 11.8274 20.9494 11.9434C20.831 12.0494 20.6909 12.1762 20.5567 12.2625C20.3384 12.4029 20.15 12.5823 19.9458 12.7398C19.8647 12.8024 19.5217 13.1784 19.5257 13.0998C19.5373 12.8751 19.6423 12.6514 19.6948 12.4344C19.7882 12.0485 19.8596 11.6605 19.9676 11.278C20.1432 10.656 20.3074 10.0849 20.3658 9.44249C20.4038 9.02457 20.4749 8.54107 20.6058 8.14156C20.6795 7.91649 20.7457 7.59254 20.8621 7.38882C20.9584 7.22042 21.0526 7.01034 21.1676 6.86244C21.2592 6.74472 21.1949 6.42844 21.1949 6.29789C21.1949 5.93214 21.0877 5.8007 20.873 5.52878C20.7913 5.4253 20.7335 5.23057 20.5839 5.2206C20.1439 5.19126 19.6939 5.21787 19.253 5.21787C18.7363 5.21787 18.1252 5.12992 17.6112 5.22878C17.2372 5.30069 16.8582 5.72169 16.6893 6.03061C16.5036 6.37046 16.374 6.73103 16.1821 7.06699C15.9509 7.47149 15.6475 7.94321 15.6475 8.42793C15.6475 8.88004 15.9646 8.76563 16.3511 8.74157C17.3335 8.68041 18.1978 8.2015 18.3503 7.15972C18.3945 6.85742 18.4103 6.5158 18.4839 6.22152C18.5729 5.86571 18.3552 6.94384 18.3039 7.307C18.256 7.64595 18.3197 8.13351 18.1675 8.45247C17.8038 9.21522 17.2523 9.89334 16.8557 10.6425C16.6299 11.069 16.6052 11.6953 16.4821 12.1616C16.352 12.6541 16.1697 12.9293 15.6639 12.9253C15.058 12.9205 14.7016 12.7391 14.3711 12.2271C14.1058 11.8161 14.0275 11.2876 14.0275 10.8089C14.0275 10.4214 14.1024 9.92309 14.0002 9.5434C13.8792 9.09388 13.5843 8.48662 13.242 8.16338C13.0306 7.9637 12.6853 8.12868 12.432 8.0161C12.1756 7.90213 11.8552 7.49252 11.7147 7.26336C11.6289 7.12338 11.5782 6.90446 11.4747 6.78881C11.1901 6.47076 11.0762 5.91966 10.9238 5.52333C10.8354 5.29366 10.6599 5.10558 10.4983 4.92605C10.2492 4.64925 10.0758 4.34196 9.7483 4.13512C9.41942 3.92741 8.97816 3.75981 8.68738 3.51057C8.58886 3.42613 8.42326 3.35667 8.29464 3.35238C7.84746 3.33748 7.40447 3.30329 6.9528 3.30329C6.46244 3.30329 6.01454 3.27184 5.57823 3.52966C5.13765 3.79 4.62916 4.05861 4.31821 4.48149C4.21853 4.61706 4.25062 4.84391 4.20639 5.00241C4.09241 5.41084 4.15408 5.78933 4.10548 6.20243C4.07724 6.44247 4.02636 6.76739 3.94184 6.99608C3.87671 7.17231 3.72342 7.46236 3.7182 7.64518C3.7056 8.08614 3.63246 8.64328 3.78911 9.05794C3.85608 9.23522 3.91457 9.41892 3.91457 9.61158C3.91457 9.76559 3.97484 9.88407 4.03184 10.0234C4.08373 10.1502 4.04073 10.2919 4.11366 10.4134C4.34437 10.7979 4.52677 11.2505 4.8364 11.5889C5.25232 12.0435 5.65583 12.6015 5.94915 13.1462C6.18223 13.579 6.34111 14.0654 6.69098 14.4253C6.76175 14.4981 6.83465 14.569 6.90644 14.6408C7.06539 14.7997 6.84094 14.5302 6.81098 14.4635C6.49153 13.752 6.32239 12.9426 6.08279 12.1998C5.95279 11.7968 5.88761 11.3188 5.84006 10.8961C5.7928 10.4761 5.62837 10.1188 5.5346 9.71249C5.32 8.78259 5.16609 7.93968 5.46096 7.00972C5.77621 6.01545 6.65374 5.95425 7.58554 5.95425C8.30597 5.95425 9.35683 6.24849 9.80558 6.85972C10.469 7.7634 10.5239 9.07525 10.8583 10.1161C11.0478 10.7058 11.3276 11.3615 11.3792 11.9816C11.4045 12.2845 10.9652 11.5338 10.7929 11.2834C10.4459 10.7794 10.0842 10.2885 9.72376 9.79431C9.52308 9.51919 9.35932 9.2909 9.02011 9.16976C8.70324 9.05659 8.29255 9.03855 7.96191 9.04703C7.62404 9.05569 7.44409 9.58952 7.74372 9.7834C7.77501 9.80365 7.7817 9.74229 7.78191 9.73431C7.78935 9.44782 7.67892 9.13517 7.61281 8.8643C7.58625 8.75544 7.34555 7.27427 7.2719 7.26609C7.15828 7.25346 6.92356 7.75277 6.88189 7.82519C6.66613 8.20019 6.56552 8.64167 6.56552 9.0743C6.56552 9.25246 6.69874 9.34779 6.82735 9.45067C7.3361 9.85768 7.88155 10.228 8.46646 10.5171C9.09877 10.8296 9.91763 10.7378 10.602 10.6916C11.5536 10.6273 12.4845 10.594 13.3838 10.9343C13.6042 11.0177 14.3157 11.167 14.4311 11.4143C14.4598 11.4757 14.4619 11.651 14.3602 11.6489C13.8597 11.6387 13.3428 11.4944 12.8465 11.4307C11.9584 11.3167 11.0627 11.1866 10.1792 11.398C9.74013 11.503 9.35282 11.755 8.92193 11.8507C8.72125 11.8953 8.80817 12.0559 8.9192 12.148C9.45833 12.5951 10.2533 12.8111 10.8965 13.0344C11.9581 13.4028 13.0446 13.652 14.1202 13.9671C14.2794 14.0138 14.7899 14.0591 14.8948 14.1989C14.9926 14.3294 14.5766 14.2737 14.4147 14.2944C13.9904 14.3486 13.5668 14.4021 13.1411 14.4444C12.4521 14.5128 11.8019 14.5668 11.1747 14.8671C10.8449 15.0251 10.4922 15.1663 10.1219 15.1835C9.86448 15.1955 9.56498 15.2227 9.33921 15.0853C9.05148 14.9102 8.68679 14.7694 8.36283 14.6708C8.35096 14.6671 8.1709 14.6386 8.26192 14.6435C9.96465 14.7347 11.6654 14.9887 13.3729 14.8617C14.5793 14.7719 15.978 14.7177 17.1148 14.2398C17.459 14.0952 17.8824 13.8147 18.0694 13.4816C18.2061 13.2381 18.1984 12.9459 18.2548 12.6798C18.3105 12.4172 18.4368 12.2175 18.5385 11.9762C18.5687 11.9044 18.5974 11.8105 18.6748 11.7743C18.7639 11.7328 18.8627 11.7841 18.9421 11.8234C19.248 11.9752 19.5365 12.1412 19.8558 12.268C20.3702 12.4722 20.8957 12.5464 21.3585 12.8653C21.547 12.9951 21.488 13.3781 21.4894 13.5689C21.4915 13.8463 21.5191 14.1137 21.293 14.3162C21.0218 14.5592 20.454 14.6169 20.1148 14.7171C19.7005 14.8395 19.2815 14.929 18.8603 15.0171C18.4263 15.108 17.9924 15.2321 17.5621 15.3417C16.9754 15.4911 16.6207 15.5028 16.0402 15.2817" stroke="black" stroke-width="3" stroke-linecap="round"/>
<path d="M9.51987 15.207C9.64041 15.2787 9.76984 15.3321 9.77432 15.4953C9.77676 15.5844 9.77432 15.6739 9.77432 15.763C9.77432 15.8331 9.77455 15.8504 9.70647 15.8261C9.6424 15.8032 9.56011 15.7849 9.50385 15.7498C9.46962 15.7284 9.42751 15.7206 9.38794 15.713C9.28845 15.6939 9.1906 15.6691 9.09486 15.6358C9.01914 15.6094 9.14492 15.6568 9.15611 15.6612C9.49776 15.7959 9.72417 16.0632 9.92887 16.3567C10.0252 16.4949 10.1013 16.638 10.2154 16.7638C10.3235 16.8831 10.4398 16.99 10.5565 17.1002C10.6497 17.1882 10.7762 17.3225 10.9024 17.3613C10.9576 17.3783 11.0508 17.4054 11.0937 17.4423C11.1154 17.4611 11.1339 17.4949 11.1653 17.497C11.1726 17.4975 11.1512 17.4926 11.1445 17.4894C11.0754 17.4564 11.0163 17.388 10.957 17.3405C10.6383 17.0856 10.3641 16.7432 10.1249 16.4132C10.0364 16.2912 9.98324 16.1363 9.87986 16.025C9.71628 15.8488 9.41502 15.7521 9.18627 15.7074C9.14715 15.6997 9.02955 15.6819 9.06941 15.6819C9.36839 15.6819 9.64236 15.7523 9.92039 15.8591C10.1787 15.9583 10.4148 16.0789 10.6545 16.2153C10.8032 16.2999 10.9337 16.4118 11.0767 16.5056C11.4228 16.7327 10.3552 16.0993 9.99201 15.9006C9.86895 15.8332 9.7502 15.7629 9.63767 15.6791C9.60508 15.6548 9.57139 15.6267 9.53118 15.616C9.44405 15.5927 9.3585 15.5259 9.28239 15.4784" stroke="black" stroke-width="3" stroke-linecap="round"/>
<path d="M12.9464 17.6327C13.0901 17.6642 13.079 17.7832 13.1415 17.8956C13.1995 18 13.1708 18.1217 13.1104 18.2226C12.9503 18.4899 12.6814 18.7046 12.3584 18.6476C12.2702 18.632 12.1449 18.4935 12.0813 18.4299" stroke="black" stroke-width="3" stroke-linecap="round"/>
<path d="M15.3042 16.3774C15.2081 16.518 15.0027 16.4842 14.8499 16.5338C14.7306 16.5726 14.5492 16.6406 14.6699 16.776C14.7419 16.8568 14.829 16.9219 14.914 16.9881C15.0474 17.0918 15.1854 17.1148 15.3456 17.1586C15.6789 17.2499 16.0041 17.2934 16.3502 17.2934C16.4607 17.2934 16.5661 17.218 16.6687 17.1784C16.7644 17.1415 16.8584 17.1124 16.9533 17.0795C17.1588 17.0084 17.3784 16.9881 17.5942 16.9881" stroke="black" stroke-width="3" stroke-linecap="round"/>
<path d="M12.2678 19.9227C12.3031 20.0992 12.4231 20.135 12.56 20.2224C12.6236 20.263 12.6745 20.2984 12.7428 20.3298C12.7945 20.3535 12.8479 20.3626 12.8955 20.3939C13.079 20.5146 13.3725 20.4994 13.5796 20.4994C13.7049 20.4994 13.8559 20.5196 13.9585 20.4334C14.1134 20.3034 14.2452 20.1473 14.3816 19.999C14.4495 19.9252 14.5035 19.8288 14.5767 19.7625C14.6652 19.6822 14.7754 19.6309 14.8801 19.5759C15.0802 19.4708 15.2961 19.4048 15.5012 19.3111C15.6403 19.2475 15.7771 19.1823 15.9224 19.1339C15.9692 19.1183 16.0153 19.0857 16.0628 19.0745C16.1877 19.0451 16.2309 18.972 16.305 18.871" stroke="black" stroke-width="3" stroke-linecap="round"/>
</svg>
