<svg width="414" height="377" viewBox="0 0 414 377" fill="none" xmlns="http://www.w3.org/2000/svg">
<path d="M380.305 0.509263C380.167 0.763909 380.35 1.01855 380.717 1.01855C381.083 1.01855 381.541 0.763909 381.678 0.509263C381.816 0.203688 381.633 -2.82526e-05 381.266 -2.82526e-05C380.9 -2.82526e-05 380.442 0.203688 380.305 0.509263Z" fill="black"/>
<path d="M210.186 19.353L210.232 32.8493L216.689 40.234C220.261 44.3083 226.809 51.744 231.251 56.786C240.409 67.1755 241.325 68.7543 241.325 73.9491C241.325 76.7502 241.05 77.8706 239.722 80.8755C237.936 84.8479 233.22 90.2464 230.106 91.9271C225.802 94.2189 220.032 92.3345 214.491 86.8851L211.698 84.084L205.699 90.8066L199.654 97.5802L201.348 99.3627C205.79 104.099 211.881 108.021 217.971 110.058C222.23 111.535 229.694 111.688 233.311 110.414C241.279 107.562 248.377 101.502 253.368 93.0475C259.871 82.1487 259.688 68.3978 252.819 55.2581C250.209 50.2161 247.736 47.0076 240.363 39.0117C236.471 34.7846 228.091 25.6683 221.772 18.64L210.186 5.90776V19.353Z" fill="#FCC330"/>
<path d="M194.983 26.1267C171.721 51.4894 158.991 65.5968 157.708 67.4812C155.144 71.1481 152.534 76.6994 151.023 81.5376C149.649 85.9685 149.557 86.8343 149.512 92.9458C149.512 99.0063 149.649 99.9231 150.84 103.539C152.671 109.09 155.144 113.114 159.998 118.41C166.867 125.846 172.957 128.851 181.337 128.851C186.741 128.851 189.992 127.985 195.304 125.082C200.524 122.23 204.737 118.767 208.538 114.183L209.82 112.655L207.393 111.229C204.142 109.447 199.883 106.187 197.502 103.743L195.533 101.757L192.785 104.507C188.847 108.479 185.962 110.109 182.253 110.414C178.407 110.72 176.392 109.651 172.041 104.965C166.592 99.1591 164.715 92.742 166.684 86.9361C167.554 84.3387 168.79 82.7599 177.674 72.676L187.702 61.3697L187.748 73.1853V85.0517H196.449H205.149V69.3656C205.149 60.7076 205.287 45.0214 205.47 34.4791C205.653 22.9691 205.607 15.2788 205.332 15.2788C205.103 15.3298 200.478 20.168 194.983 26.1267Z" fill="#FCC330"/>
<path d="M85.7689 162.82C84.1661 166.793 76.9768 184.363 75.5572 187.674C72.9012 193.989 68.1846 205.499 68.0931 206.008C67.9557 206.721 74.9619 206.772 75.4656 206.059C75.6946 205.754 77.0683 202.596 78.5337 198.98L81.1896 192.512L88.9285 192.614L96.6216 192.767L99.5065 199.642L102.391 206.518L105.963 206.67C109.489 206.823 109.535 206.823 109.352 205.652C109.214 204.99 105.047 194.549 100.01 182.428L90.9434 160.427H88.8369C86.7305 160.427 86.6847 160.478 85.7689 162.82ZM91.2639 179.372L93.3704 184.618L91.0808 184.771C89.8444 184.873 87.8295 184.873 86.5931 184.771L84.3951 184.618L86.4557 179.372C87.6006 176.52 88.6538 174.178 88.8369 174.178C89.0201 174.178 90.0733 176.52 91.2639 179.372Z" fill="black"/>
<path d="M154.915 160.936C151.801 161.649 148.046 163.89 145.253 166.793C140.811 171.377 138.75 176.673 138.75 183.65C138.75 200.865 153.175 211.152 168.973 205.295C175.476 202.851 175.384 202.953 175.384 198.114C175.384 195.67 175.201 194.04 174.926 194.04C174.652 194.04 173.69 194.6 172.728 195.262C171.767 195.924 169.477 197.096 167.6 197.86C164.806 199.031 163.433 199.286 160.273 199.286C155.739 199.286 153.175 198.267 150.199 195.262C147.268 192.308 146.398 189.966 146.169 184.516C145.986 180.391 146.077 179.576 147.13 177.132C148.504 173.668 150.748 171.173 153.908 169.39C155.877 168.321 156.976 168.066 159.769 168.066C164.257 168.117 166.592 168.728 170.805 171.02C172.683 172.039 174.377 172.955 174.606 173.057C174.789 173.159 174.926 171.275 174.926 168.83V164.45L172.362 163.177C167.233 160.681 160.319 159.765 154.915 160.936Z" fill="black"/>
<path d="M195.579 162.566C195.121 163.788 190.908 174.025 186.191 185.331C181.52 196.637 177.811 206.059 177.903 206.263C177.994 206.467 179.689 206.62 181.612 206.569L185.092 206.518L187.886 199.642C189.397 195.874 190.725 192.665 190.816 192.563C190.999 192.258 194.938 192.207 201.532 192.41L206.386 192.512L208.767 198.471C212.293 207.231 211.881 206.772 215.91 206.772C217.788 206.772 219.345 206.569 219.345 206.365C219.345 206.11 217.879 202.392 216.139 198.063C214.353 193.734 211.835 187.674 210.599 184.618C209.316 181.511 206.569 174.891 204.508 169.849L200.707 160.681L198.555 160.529C196.449 160.376 196.449 160.376 195.579 162.566ZM202.585 183.752C202.905 184.873 202.86 184.873 198.555 184.873C196.128 184.873 194.159 184.669 194.159 184.465C194.159 184.211 194.663 182.938 195.258 181.511C195.853 180.136 196.815 177.743 197.41 176.266L198.464 173.465L200.387 178.048C201.44 180.544 202.402 183.141 202.585 183.752Z" fill="black"/>
<path d="M286.43 161.14C280.89 162.617 275.257 167.71 272.876 173.363C268.984 182.683 270.449 192.92 276.768 199.948C280.02 203.513 283.271 205.448 288.033 206.569C292.383 207.587 296.093 207.231 301.542 205.194C307.815 202.851 307.724 202.953 307.724 197.86V193.531L303.648 195.823C301.45 197.096 298.245 198.471 296.596 198.878C289.224 200.763 282.263 197.452 279.333 190.679C278.463 188.743 278.279 187.419 278.234 183.905C278.234 176.928 280.569 172.548 285.835 169.594C290.872 166.844 297.329 167.608 304.427 171.937L307.266 173.668V169.034V164.45L304.702 163.177C299.298 160.529 291.788 159.663 286.43 161.14Z" fill="black"/>
<path d="M114.938 183.854V206.772L127.44 206.67L139.895 206.518L140.033 202.8L140.17 199.133H130.966H121.807V180.034V160.936H118.373H114.938V183.854Z" fill="black"/>
<path d="M225.298 183.854V206.772H228.732H232.167L232.258 190.78L232.396 174.789L236.746 180.442C239.127 183.549 242.653 188.03 244.531 190.424C246.454 192.818 249.934 197.299 252.315 200.406C254.696 203.462 256.849 206.161 257.123 206.416C257.352 206.619 258.726 206.721 260.1 206.67L262.618 206.518L262.756 183.701L262.847 160.936H259.184H255.521V176.724V192.512L251.995 188.081C250.071 185.586 247.461 182.326 246.179 180.798C241.783 175.349 241.005 174.381 235.876 167.659L230.747 160.936H228H225.298V183.854Z" fill="black"/>
<path d="M312.395 183.701L312.532 206.518L324.805 206.67L337.031 206.772V202.953V199.133H328.331H319.63V193.276V187.47L325.491 187.317L331.307 187.165L331.444 183.447L331.582 179.78H325.583H319.63V173.923V168.066L328.239 167.964L336.802 167.811V164.501V161.191L324.53 161.038L312.303 160.936L312.395 183.701Z" fill="black"/>
<path d="M412.359 173.668C412.497 173.923 412.726 174.178 412.863 174.178C412.955 174.178 413.046 173.923 413.046 173.668C413.046 173.363 412.817 173.159 412.542 173.159C412.313 173.159 412.222 173.363 412.359 173.668Z" fill="black"/>
<path d="M398.85 174.687C398.85 174.942 399.079 175.196 399.354 175.196C399.583 175.196 399.675 174.942 399.537 174.687C399.4 174.381 399.171 174.178 399.034 174.178C398.942 174.178 398.85 174.381 398.85 174.687Z" fill="black"/>
<path d="M191.87 247.621C184.772 264.885 182.207 271.201 181.978 272.219C181.749 273.289 181.887 273.442 183.077 273.391C184.36 273.34 184.589 273.034 186.42 268.603L188.344 263.816H193.976H199.608L200.891 266.974C203.363 273.136 203.455 273.238 204.92 273.238C205.699 273.238 206.248 272.983 206.202 272.678C206.111 272.117 199.837 256.737 196.449 248.639C195.304 245.991 194.388 244.463 193.93 244.463C193.472 244.463 192.694 245.685 191.87 247.621ZM196.357 256.024L198.235 260.76H193.93H189.626L190.267 259.08C190.633 258.214 191.32 256.482 191.87 255.26C192.373 254.089 193.014 252.51 193.289 251.746C193.884 250.014 194.113 250.371 196.357 256.024Z" fill="black"/>
<path d="M246.591 245.125C245.813 245.532 244.531 246.704 243.706 247.722C242.424 249.352 242.241 249.963 242.241 252.357C242.241 254.7 242.47 255.362 243.615 256.89C244.393 257.857 246.088 259.08 247.645 259.793C252.544 261.983 253.689 263.103 253.689 265.751C253.689 266.974 253.323 267.89 252.361 268.96C250.529 270.946 248.377 270.946 245.126 268.909C243.798 268.043 242.607 267.381 242.47 267.381C242.333 267.381 242.241 268.196 242.241 269.164C242.241 270.844 242.424 271.099 244.668 272.219C247.416 273.645 250.758 273.9 252.728 272.729C255.933 270.895 257.49 266.974 256.482 263.205C255.75 260.607 254.33 259.131 251.033 257.654C249.614 257.042 247.736 255.973 246.912 255.311C245.584 254.19 245.401 253.834 245.538 252C245.63 250.422 245.996 249.658 246.958 248.843C248.927 247.213 251.4 247.519 255.658 249.963C255.841 250.065 255.979 249.301 255.979 248.283C255.979 246.653 255.796 246.347 254.284 245.634C251.903 244.514 248.286 244.31 246.591 245.125Z" fill="black"/>
<path d="M151.939 260.455C151.801 274.868 151.755 275.988 150.931 277.007C150.427 277.618 149.512 278.076 148.733 278.076C147.543 278.076 147.405 278.229 147.543 279.451C147.68 280.674 147.909 280.877 149.328 281.03C150.427 281.132 151.343 280.826 152.213 280.062C154.64 277.923 154.778 276.905 154.778 260.251V244.972H153.404H152.076L151.939 260.455Z" fill="black"/>
<path d="M161.738 259.08L161.876 273.238L169.111 273.391L176.3 273.544V271.965V270.437H170.576H164.852V265.344C164.852 261.524 164.989 260.251 165.447 260.302C165.722 260.353 167.508 260.353 169.34 260.302C172.545 260.251 172.637 260.2 172.637 258.978C172.637 257.705 172.591 257.705 168.744 257.705H164.852V252.866V248.079L170.484 247.926L176.071 247.773L176.208 246.347L176.346 244.972H169.019H161.647L161.738 259.08Z" fill="black"/>
<path d="M212.568 259.08L212.705 273.238L213.987 273.391L215.224 273.544V262.339C215.224 256.126 215.361 251.084 215.498 251.084C215.819 251.084 216.231 251.593 219.345 255.667C220.719 257.501 222.505 259.793 223.329 260.76C224.107 261.728 225.16 263.052 225.618 263.612C232.762 272.932 233.22 273.493 234.273 273.493H235.372V259.232V244.972H233.998H232.625L232.533 256.228L232.396 267.534L228.824 263.001C226.901 260.506 222.962 255.464 220.123 251.746C215.91 246.246 214.766 245.023 213.712 245.023L212.476 244.972L212.568 259.08Z" fill="black"/>
<path d="M0 350.953C0 351.207 0.228961 351.309 0.457922 351.156C0.732676 351.004 0.915845 350.749 0.915845 350.596C0.915845 350.494 0.732676 350.392 0.457922 350.392C0.228961 350.392 0 350.647 0 350.953Z" fill="black"/>
<path d="M13.7377 364.653C13.7377 364.907 13.9666 365.162 14.1956 365.162C14.4703 365.162 14.6535 364.907 14.6535 364.653C14.6535 364.347 14.4703 364.143 14.1956 364.143C13.9666 364.143 13.7377 364.347 13.7377 364.653Z" fill="black"/>
<path d="M9.66224 369.033C9.66224 369.593 9.79962 369.746 9.93699 369.338C10.0744 368.982 10.0286 368.523 9.8912 368.371C9.75383 368.167 9.61645 368.472 9.66224 369.033Z" fill="black"/>
<path d="M11.2191 368.727C11.3565 368.982 11.6771 369.236 11.9518 369.236C12.1808 369.236 12.3639 368.982 12.3639 368.727C12.3639 368.421 12.0434 368.218 11.6313 368.218C11.2649 368.218 11.0818 368.421 11.2191 368.727Z" fill="black"/>
<path d="M206.889 370.611C207.21 370.764 207.622 370.713 207.759 370.56C207.943 370.408 207.668 370.255 207.164 370.306C206.66 370.306 206.523 370.459 206.889 370.611Z" fill="black"/>
<path d="M2.74754 371.324C2.74754 371.579 2.9765 371.681 3.20547 371.528C3.48022 371.375 3.66339 371.121 3.66339 370.968C3.66339 370.866 3.48022 370.764 3.20547 370.764C2.9765 370.764 2.74754 371.019 2.74754 371.324Z" fill="black"/>
<path d="M189.122 371.273C188.527 371.681 188.572 371.783 189.259 371.783C189.671 371.783 190.038 371.528 190.038 371.273C190.038 370.662 189.992 370.662 189.122 371.273Z" fill="black"/>
<path d="M214.766 371.477C214.766 371.936 214.995 372.292 215.224 372.292C215.498 372.292 215.682 372.088 215.682 371.834C215.682 371.528 215.498 371.172 215.224 371.019C214.995 370.866 214.766 371.07 214.766 371.477Z" fill="black"/>
<path d="M8.47155 371.783C9.70794 372.394 10.0743 372.394 10.0743 371.783C10.0743 371.477 9.52478 371.273 8.83789 371.324C7.69309 371.324 7.64729 371.375 8.47155 371.783Z" fill="black"/>
<path d="M2.38124 373.82C2.01491 374.482 2.01491 374.839 2.28966 374.839C2.56441 374.839 2.88496 374.482 3.06813 374.075C3.48026 372.852 3.02233 372.7 2.38124 373.82Z" fill="black"/>
<path d="M8.70052 374.176C8.70052 374.686 8.88368 374.889 9.06685 374.584C9.25002 374.278 9.57057 373.922 9.79953 373.667C10.0285 373.463 9.89111 373.311 9.47898 373.311C9.02106 373.311 8.70052 373.718 8.70052 374.176Z" fill="black"/>
<path d="M6.41095 374.838C6.41095 375.45 7.69313 375.908 8.01368 375.399C8.10526 375.144 7.83051 374.838 7.32679 374.686C6.82308 374.533 6.41095 374.584 6.41095 374.838Z" fill="black"/>
<path d="M212.018 374.839C211.469 375.246 211.514 375.348 212.384 375.348C212.934 375.348 213.392 375.093 213.392 374.839C213.392 374.176 212.888 374.176 212.018 374.839Z" fill="black"/>
<path d="M3.20547 375.857C3.20547 376.112 3.52602 376.366 3.89236 376.366C4.2587 376.366 4.57924 376.112 4.57924 375.857C4.57924 375.552 4.2587 375.348 3.89236 375.348C3.52602 375.348 3.20547 375.552 3.20547 375.857Z" fill="black"/>
<path d="M192.556 376.366C192.419 376.621 192.511 376.876 192.74 376.876C193.014 376.876 193.243 376.621 193.243 376.366C193.243 376.061 193.152 375.857 193.06 375.857C192.923 375.857 192.694 376.061 192.556 376.366Z" fill="black"/>
</svg>
