<svg width="147" height="151" viewBox="0 0 147 151" fill="none" xmlns="http://www.w3.org/2000/svg">
<path d="M77.668 7.37951L77.693 14.7863L81.2222 18.8391C83.1745 21.0751 86.7537 25.1559 89.1816 27.923C94.1875 33.6248 94.6881 34.4913 94.6881 37.3422C94.6881 38.8795 94.5379 39.4944 93.8121 41.1435C92.8359 43.3236 90.2579 46.2863 88.5559 47.2087C86.2031 48.4664 83.0493 47.4323 80.0208 44.4416L78.494 42.9043L75.2151 46.5938L71.9112 50.3111L72.8373 51.2894C75.2651 53.8888 78.5941 56.041 81.923 57.159C84.2508 57.9695 88.3306 58.0534 90.3079 57.3546C94.6631 55.7894 98.5427 52.4633 101.271 47.8236C104.825 41.8422 104.725 34.2956 100.971 27.0845C99.5439 24.3174 98.1923 22.5565 94.1625 18.1683C92.035 15.8484 87.4546 10.8453 84.0005 6.9882L77.668 0.000631688V7.37951Z" fill="#EE82EE"/>
<path d="M69.3581 11.0962C56.6431 25.0156 49.6849 32.758 48.984 33.7921C47.5824 35.8046 46.1557 38.8512 45.3297 41.5065C44.5788 43.9382 44.5288 44.4134 44.5038 47.7675C44.5038 51.0936 44.5788 51.5967 45.2296 53.5812C46.2308 56.6278 47.5824 58.8359 50.2355 61.7428C53.9899 65.8236 57.3189 67.4727 61.8993 67.4727C64.8528 67.4727 66.6299 66.9975 69.5333 65.4043C72.3867 63.8391 74.6894 61.9384 76.7668 59.4229L77.4677 58.5844L76.1411 57.8017C74.364 56.8235 72.0362 55.0346 70.7347 53.693L69.6584 52.6029L68.1567 54.1123C66.0041 56.2924 64.4273 57.1868 62.3999 57.3545C60.2974 57.5222 59.1961 56.9353 56.8183 54.3638C53.8398 51.1774 52.8136 47.6557 53.8898 44.4693C54.3654 43.0438 55.0412 42.1773 59.8969 36.6431L65.3784 30.4381L65.4034 36.9226V43.4351H70.159H74.9146V34.8263C74.9146 30.0747 74.9897 21.4659 75.0899 15.6801C75.19 9.36327 75.1649 5.14273 75.0148 5.14273C74.8896 5.17068 72.3616 7.82599 69.3581 11.0962Z" fill="#EE82EE"/>
<path d="M9.66252 86.1148C8.78649 88.295 4.85684 97.9379 4.08092 99.7546C2.6292 103.221 0.051149 109.537 0.00108974 109.817C-0.0739991 110.208 3.75553 110.236 4.03086 109.845C4.15601 109.677 4.9069 107.944 5.70784 105.96L7.15956 102.41L11.3896 102.466L15.5945 102.55L17.1714 106.323L18.7483 110.096L20.7006 110.18C22.6279 110.264 22.6529 110.264 22.5528 109.621C22.4777 109.258 20.2 103.528 17.4467 96.8758L12.4909 84.8012H11.3395C10.1881 84.8012 10.1631 84.8291 9.66252 86.1148ZM12.6661 95.1987L13.8174 98.0776L12.566 98.1615C11.8902 98.2174 10.7889 98.2174 10.1131 98.1615L8.91164 98.0776L10.038 95.1987C10.6637 93.6335 11.2394 92.3478 11.3395 92.3478C11.4396 92.3478 12.0153 93.6335 12.6661 95.1987Z" fill="black"/>
<path d="M47.4572 85.0808C45.7552 85.4721 43.7028 86.7019 42.176 88.2951C39.7481 90.8106 38.6218 93.7175 38.6218 97.5467C38.6218 106.994 46.5061 112.64 55.1413 109.426C58.6956 108.084 58.6455 108.14 58.6455 105.485C58.6455 104.143 58.5454 103.249 58.3952 103.249C58.245 103.249 57.7194 103.556 57.1938 103.919C56.6682 104.283 55.4167 104.926 54.3905 105.345C52.8636 105.988 52.1128 106.127 50.3857 106.127C47.9078 106.127 46.5061 105.568 44.8792 103.919C43.2773 102.298 42.8017 101.013 42.6766 98.0218C42.5765 95.7579 42.6265 95.3106 43.2022 93.969C43.9531 92.0684 45.1795 90.6988 46.9066 89.7206C47.9829 89.1336 48.5836 88.9938 50.1104 88.9938C52.5633 89.0218 53.8398 89.3572 56.1425 90.615C57.1687 91.174 58.0948 91.6771 58.22 91.733C58.3201 91.7889 58.3952 90.7547 58.3952 89.4131V87.0094L56.9935 86.3106C54.1902 84.941 50.4107 84.4379 47.4572 85.0808Z" fill="black"/>
<path d="M69.6834 85.9752C69.4331 86.646 67.1304 92.264 64.5523 98.469C61.9993 104.674 59.9719 109.845 60.022 109.957C60.072 110.068 60.9981 110.152 62.0494 110.124L63.9516 110.096L65.4784 106.323C66.3044 104.255 67.0303 102.494 67.0803 102.438C67.1804 102.27 69.333 102.242 72.9373 102.354L75.5904 102.41L76.8919 105.68C78.8192 110.488 78.594 110.236 80.7966 110.236C81.8228 110.236 82.6738 110.124 82.6738 110.012C82.6738 109.873 81.8728 107.832 80.9217 105.457C79.9456 103.081 78.5689 99.7547 77.8931 98.0776C77.1923 96.3727 75.6905 92.7391 74.5642 89.9721L72.4867 84.941L71.3103 84.8572C70.159 84.7733 70.159 84.7733 69.6834 85.9752ZM73.5129 97.6025C73.6881 98.2174 73.6631 98.2174 71.3103 98.2174C69.9838 98.2174 68.9075 98.1056 68.9075 97.9938C68.9075 97.854 69.1828 97.1553 69.5082 96.3727C69.8336 95.618 70.3592 94.3044 70.6846 93.4938L71.2603 91.9565L72.3115 94.4721C72.8872 95.8416 73.4128 97.2671 73.5129 97.6025Z" fill="black"/>
<path d="M119.342 85.1925C116.314 86.0031 113.235 88.7981 111.933 91.9006C109.806 97.0155 110.607 102.634 114.061 106.491C115.838 108.447 117.615 109.509 120.218 110.124C122.596 110.683 124.623 110.488 127.602 109.37C131.031 108.084 130.981 108.14 130.981 105.345V102.969L128.753 104.227C127.552 104.925 125.8 105.68 124.899 105.904C120.869 106.938 117.064 105.121 115.463 101.404C114.987 100.342 114.887 99.6149 114.862 97.6863C114.862 93.8571 116.138 91.4534 119.017 89.8323C121.77 88.3229 125.299 88.7422 129.179 91.118L130.731 92.0683V89.5248V87.0093L129.329 86.3105C126.375 84.8571 122.271 84.3819 119.342 85.1925Z" fill="black"/>
<path d="M25.6064 97.6581V110.236L32.4394 110.18L39.2475 110.096L39.3226 108.056L39.3977 106.043H34.3667H29.3608V95.5618V85.0803H27.4836H25.6064V97.6581Z" fill="black"/>
<path d="M85.9277 97.6581V110.236H87.8049H89.6822L89.7322 101.459L89.8073 92.6829L92.1851 95.7854C93.4866 97.4904 95.4139 99.95 96.4401 101.264C97.4914 102.577 99.3936 105.037 100.695 106.742C101.997 108.419 103.173 109.9 103.323 110.04C103.448 110.152 104.199 110.208 104.95 110.18L106.327 110.096L106.402 97.5742L106.452 85.0803H104.45H102.447V93.745V102.41L100.52 99.978C99.4687 98.6084 98.042 96.8196 97.3412 95.9811C94.9384 92.9904 94.5129 92.4593 91.7096 88.7698L88.9062 85.0803H87.4045H85.9277V97.6581Z" fill="black"/>
<path d="M133.534 97.5742L133.609 110.096L140.317 110.18L147 110.236V108.14V106.043H142.244H137.489V102.829V99.6426L140.693 99.5587L143.871 99.4749L143.946 97.4345L144.021 95.4221H140.743H137.489V92.2077V88.9934L142.194 88.9375L146.875 88.8537V87.0369V85.2201L140.167 85.1362L133.484 85.0803L133.534 97.5742Z" fill="black"/>
<path d="M67.6562 132.654C63.7766 142.129 62.3749 145.595 62.2498 146.154C62.1246 146.741 62.1997 146.825 62.8505 146.797C63.5513 146.769 63.6765 146.601 64.6776 144.17L65.7289 141.542H68.8075H71.8861L72.587 143.275C73.9386 146.657 73.9886 146.713 74.7896 146.713C75.2151 146.713 75.5154 146.574 75.4904 146.406C75.4403 146.098 72.0113 137.657 70.1591 133.213C69.5334 131.76 69.0328 130.921 68.7825 130.921C68.5322 130.921 68.1067 131.592 67.6562 132.654ZM70.1091 137.266L71.1353 139.865H68.7825H66.4297L66.7801 138.943C66.9804 138.468 67.3558 137.518 67.6562 136.847C67.9315 136.204 68.2819 135.338 68.4321 134.918C68.7575 133.968 68.8826 134.164 70.1091 137.266Z" fill="black"/>
<path d="M97.5665 131.285C97.141 131.508 96.4402 132.151 95.9896 132.71C95.2888 133.604 95.1887 133.94 95.1887 135.254C95.1887 136.539 95.3138 136.903 95.9396 137.741C96.3651 138.272 97.2912 138.943 98.1422 139.334C100.82 140.536 101.446 141.151 101.446 142.604C101.446 143.275 101.246 143.778 100.72 144.365C99.7191 145.455 98.5427 145.455 96.7656 144.337C96.0397 143.862 95.3889 143.499 95.3138 143.499C95.2387 143.499 95.1887 143.946 95.1887 144.477C95.1887 145.399 95.2888 145.539 96.5153 146.154C98.017 146.937 99.8442 147.076 100.92 146.434C102.673 145.427 103.524 143.275 102.973 141.207C102.572 139.781 101.797 138.971 99.9944 138.16C99.2185 137.825 98.1923 137.238 97.7417 136.875C97.0159 136.26 96.9157 136.064 96.9908 135.058C97.0409 134.191 97.2411 133.772 97.7668 133.325C98.843 132.431 100.195 132.598 102.522 133.94C102.623 133.996 102.698 133.577 102.698 133.018C102.698 132.123 102.597 131.955 101.772 131.564C100.47 130.949 98.4926 130.837 97.5665 131.285Z" fill="black"/>
<path d="M45.8302 139.698C45.7551 147.608 45.7301 148.223 45.2796 148.782C45.0042 149.117 44.5037 149.368 44.0782 149.368C43.4274 149.368 43.3523 149.452 43.4274 150.123C43.5025 150.794 43.6276 150.906 44.4035 150.99C45.0042 151.045 45.5048 150.878 45.9804 150.459C47.3069 149.285 47.382 148.726 47.382 139.586V131.201H46.6311H45.9053L45.8302 139.698Z" fill="black"/>
<path d="M51.1865 138.943L51.2616 146.713L55.2163 146.797L59.146 146.881V146.014V145.176H56.0173H52.8886V142.381C52.8886 140.284 52.9636 139.586 53.2139 139.614C53.3641 139.642 54.3403 139.642 55.3415 139.614C57.0935 139.586 57.1436 139.558 57.1436 138.887C57.1436 138.188 57.1186 138.188 55.0161 138.188H52.8886V135.533V132.905L55.9672 132.822L59.0208 132.738L59.0959 131.955L59.171 131.2H55.1663H51.1365L51.1865 138.943Z" fill="black"/>
<path d="M78.9694 138.943L79.0445 146.713L79.7453 146.797L80.4211 146.881V140.732C80.4211 137.322 80.4962 134.555 80.5713 134.555C80.7465 134.555 80.9718 134.834 82.6738 137.07C83.4247 138.076 84.4009 139.334 84.8514 139.865C85.2769 140.396 85.8526 141.123 86.1029 141.43C90.0075 146.545 90.2578 146.853 90.8335 146.853H91.4342V139.027V131.2H90.6833H89.9324L89.8823 137.378L89.8072 143.583L87.8549 141.095C86.8037 139.725 84.6511 136.958 83.0993 134.918C80.7966 131.899 80.1709 131.228 79.5952 131.228L78.9194 131.2L78.9694 138.943Z" fill="black"/>
</svg>
