<svg width="111" height="101" viewBox="0 0 111 101" fill="none" xmlns="http://www.w3.org/2000/svg">
<path d="M101.759 0.136402C101.723 0.204538 101.772 0.272675 101.87 0.272675C101.968 0.272675 102.09 0.204538 102.127 0.136402C102.164 0.054638 102.115 0.000128865 102.017 0.000128865C101.919 0.000128865 101.796 0.054638 101.759 0.136402Z" fill="black"/>
<path d="M56.2403 5.17851L56.2525 8.78975L57.9802 10.7657C58.9359 11.8559 60.688 13.8455 61.8766 15.1946C64.3271 17.9745 64.5722 18.397 64.5722 19.787C64.5722 20.5365 64.4987 20.8363 64.1433 21.6403C63.6655 22.7032 62.4034 24.1477 61.5702 24.5974C60.4185 25.2106 58.8746 24.7064 57.392 23.2483L56.6446 22.4988L55.0395 24.2976L53.4221 26.11L53.8755 26.587C55.064 27.8543 56.6936 28.9036 58.3233 29.4487C59.4628 29.8439 61.46 29.8848 62.4279 29.5441C64.5599 28.781 66.4591 27.1593 67.7947 24.8972C69.5346 21.981 69.4855 18.3016 67.6476 14.7857C66.9492 13.4366 66.2876 12.5781 64.3149 10.4386C63.2734 9.30758 61.0311 6.8683 59.3402 4.98773L56.2403 1.58091V5.17851Z" fill="#FCC330"/>
<path d="M52.1724 6.99094C45.9479 13.7773 42.5417 17.5521 42.1986 18.0563C41.5124 19.0375 40.814 20.5228 40.4097 21.8174C40.0421 23.003 40.0176 23.2347 40.0053 24.8699C40.0053 26.4916 40.0421 26.7369 40.3607 27.7044C40.8508 29.1898 41.5124 30.2663 42.8112 31.6836C44.6492 33.6732 46.2788 34.4772 48.521 34.4772C49.9669 34.4772 50.8368 34.2455 52.2581 33.4688C53.655 32.7056 54.7822 31.779 55.7992 30.5525L56.1423 30.1437L55.4929 29.7621C54.6229 29.2852 53.4834 28.413 52.8463 27.7589L52.3194 27.2275L51.5842 27.9633C50.5305 29.0263 49.7586 29.4623 48.7661 29.5441C47.7369 29.6259 47.1977 29.3397 46.0337 28.086C44.5756 26.5325 44.0733 24.8154 44.6001 23.2619C44.8329 22.5669 45.1638 22.1445 47.5408 19.4463L50.2242 16.421L50.2364 19.5825V22.7577H52.5645H54.8925V18.5605C54.8925 16.2439 54.9292 12.0467 54.9783 9.22581C55.0273 6.14604 55.015 4.08833 54.9415 4.08833C54.8802 4.10195 53.6427 5.39654 52.1724 6.99094Z" fill="#FCC330"/>
<path d="M22.9495 43.5665C22.5206 44.6295 20.5969 49.3309 20.2171 50.2167C19.5064 51.9064 18.2444 54.9862 18.2199 55.1225C18.1831 55.3133 20.0578 55.3269 20.1926 55.1361C20.2539 55.0543 20.6214 54.2095 21.0135 53.2419L21.7242 51.5112L23.7949 51.5385L25.8534 51.5794L26.6253 53.4191L27.3972 55.2588L28.3529 55.2996C29.2964 55.3405 29.3087 55.3405 29.2597 55.0271C29.2229 54.8499 28.1079 52.0563 26.7601 48.813L24.334 42.9261H23.7704C23.2068 42.9261 23.1945 42.9397 22.9495 43.5665ZM24.4198 47.9954L24.9834 49.399L24.3708 49.4399C24.04 49.4672 23.5008 49.4672 23.17 49.4399L22.5819 49.399L23.1333 47.9954C23.4396 47.2323 23.7214 46.6054 23.7704 46.6054C23.8194 46.6054 24.1012 47.2323 24.4198 47.9954Z" fill="black"/>
<path d="M41.4512 43.0624C40.618 43.2531 39.6133 43.8527 38.8658 44.6295C37.6773 45.856 37.1259 47.2732 37.1259 49.1401C37.1259 53.7462 40.9856 56.4989 45.2128 54.9317C46.9527 54.2776 46.9282 54.3049 46.9282 53.0103C46.9282 52.3562 46.8792 51.9201 46.8056 51.9201C46.7321 51.9201 46.4748 52.07 46.2175 52.2472C45.9602 52.4243 45.3476 52.7377 44.8452 52.9421C44.0978 53.2556 43.7302 53.3237 42.8847 53.3237C41.6717 53.3237 40.9856 53.0512 40.1891 52.2472C39.405 51.4568 39.1722 50.8299 39.1109 49.3718C39.0619 48.268 39.0864 48.0499 39.3682 47.3958C39.7358 46.4692 40.3362 45.8014 41.1816 45.3245C41.7085 45.0383 42.0025 44.9702 42.75 44.9702C43.9507 44.9838 44.5756 45.1473 45.7029 45.7606C46.2053 46.0331 46.6586 46.2784 46.7199 46.3057C46.7689 46.3329 46.8056 45.8287 46.8056 45.1746V44.0026L46.1195 43.662C44.7472 42.9942 42.897 42.7489 41.4512 43.0624Z" fill="black"/>
<path d="M52.3317 43.4984C52.2091 43.8255 51.0819 46.5646 49.8198 49.5898C48.5701 52.6151 47.5776 55.1361 47.6021 55.1906C47.6266 55.2451 48.0799 55.286 48.5946 55.2724L49.5258 55.2588L50.2732 53.4191C50.6775 52.4107 51.0329 51.5521 51.0574 51.5249C51.1064 51.4431 52.1601 51.4295 53.9245 51.484L55.2233 51.5113L55.8605 53.1057C56.8039 55.4495 56.6936 55.3269 57.7719 55.3269C58.2743 55.3269 58.6909 55.2724 58.6909 55.2179C58.6909 55.1497 58.2988 54.155 57.8332 52.9966C57.3553 51.8383 56.6814 50.2167 56.3506 49.399C56.0075 48.5678 55.2723 46.7962 54.721 45.4471L53.704 42.9942L53.1281 42.9533C52.5645 42.9124 52.5645 42.9124 52.3317 43.4984ZM54.2063 49.1674C54.2921 49.4672 54.2799 49.4672 53.1281 49.4672C52.4787 49.4672 51.9518 49.4127 51.9518 49.3582C51.9518 49.29 52.0866 48.9493 52.2459 48.5678C52.4052 48.1998 52.6625 47.5594 52.8218 47.1642L53.1036 46.4147L53.6182 47.6411C53.9 48.3089 54.1573 49.0038 54.2063 49.1674Z" fill="black"/>
<path d="M76.6412 43.1169C75.1586 43.512 73.6515 44.8748 73.0144 46.3874C71.9729 48.8812 72.365 51.6203 74.0558 53.5008C74.9258 54.4548 75.7957 54.9726 77.07 55.2724C78.234 55.5449 79.2265 55.4495 80.6846 54.9045C82.3632 54.2776 82.3387 54.3049 82.3387 52.9421V51.7838L81.2482 52.397C80.6601 52.7377 79.8024 53.1057 79.3613 53.2147C77.3886 53.7189 75.5262 52.8331 74.742 51.0207C74.5092 50.5028 74.4602 50.1485 74.4479 49.2083C74.4479 47.3413 75.0728 46.1694 76.4819 45.379C77.8297 44.6431 79.5573 44.8475 81.4565 46.0058L82.2162 46.4692V45.2291V44.0026L81.53 43.6619C80.0842 42.9533 78.0748 42.7217 76.6412 43.1169Z" fill="black"/>
<path d="M30.7545 49.1946V55.3269L34.0995 55.2996L37.4323 55.2587L37.469 54.2639L37.5058 53.2828H35.043H32.5924V48.1725V43.0623H31.6734H30.7545V49.1946Z" fill="black"/>
<path d="M60.2837 49.1946V55.3269H61.2027H62.1216L62.1461 51.0479L62.1829 46.7689L63.3469 48.2816C63.984 49.1128 64.9275 50.312 65.4299 50.9525C65.9445 51.593 66.8757 52.7922 67.5128 53.6235C68.15 54.4411 68.7259 55.1633 68.7994 55.2315C68.8607 55.286 69.2282 55.3132 69.5958 55.2996L70.2697 55.2587L70.3065 49.1537L70.331 43.0623H69.3508H68.3705V47.2868V51.5112L67.4271 50.3257C66.9125 49.6579 66.2141 48.7858 65.871 48.377C64.6947 46.9188 64.4864 46.6599 63.1141 44.8611L61.7418 43.0623H61.0066H60.2837V49.1946Z" fill="black"/>
<path d="M83.5885 49.1537L83.6253 55.2587L86.909 55.2996L90.1805 55.3269V54.3048V53.2828H87.8525H85.5245V51.7156V50.1621L87.0928 50.1213L88.6489 50.0804L88.6857 49.0856L88.7224 48.1044H87.1173H85.5245V46.5373V44.9701L87.828 44.9429L90.1193 44.902V44.0162V43.1305L86.8355 43.0896L83.564 43.0623L83.5885 49.1537Z" fill="black"/>
<path d="M110.336 46.4692C110.373 46.5373 110.434 46.6054 110.471 46.6054C110.496 46.6054 110.52 46.5373 110.52 46.4692C110.52 46.3874 110.459 46.3329 110.385 46.3329C110.324 46.3329 110.3 46.3874 110.336 46.4692Z" fill="black"/>
<path d="M106.722 46.7417C106.722 46.8098 106.783 46.878 106.857 46.878C106.918 46.878 106.942 46.8098 106.906 46.7417C106.869 46.6599 106.808 46.6054 106.771 46.6054C106.746 46.6054 106.722 46.6599 106.722 46.7417Z" fill="black"/>
<path d="M51.3392 66.2568C49.44 70.8765 48.7538 72.5662 48.6926 72.8388C48.6313 73.125 48.6681 73.1658 48.9866 73.1522C49.3297 73.1386 49.391 73.0568 49.8811 71.8712L50.3957 70.5903H51.9028H53.4099L53.753 71.4352C54.4146 73.0841 54.4391 73.1113 54.8312 73.1113C55.0395 73.1113 55.1865 73.0432 55.1743 72.9614C55.1498 72.8115 53.4712 68.6961 52.5644 66.5294C52.2581 65.8207 52.0131 65.4119 51.8905 65.4119C51.768 65.4119 51.5597 65.739 51.3392 66.2568ZM52.5399 68.5053L53.0423 69.7726H51.8905H50.7388L50.9103 69.3229C51.0083 69.0913 51.1921 68.628 51.3392 68.3009C51.4739 67.9875 51.6455 67.565 51.719 67.3606C51.8783 66.8973 51.9396 66.9927 52.5399 68.5053Z" fill="black"/>
<path d="M65.9813 65.5891C65.773 65.6981 65.4299 66.0115 65.2093 66.2841C64.8663 66.7201 64.8172 66.8837 64.8172 67.5241C64.8172 68.151 64.8785 68.3282 65.1848 68.737C65.3931 68.9959 65.8465 69.3229 66.2631 69.5137C67.5741 70.0997 67.8804 70.3995 67.8804 71.1081C67.8804 71.4352 67.7824 71.6805 67.5251 71.9666C67.035 72.4981 66.4591 72.4981 65.5892 71.953C65.2338 71.7214 64.9153 71.5442 64.8785 71.5442C64.8418 71.5442 64.8172 71.7622 64.8172 72.0212C64.8172 72.4709 64.8663 72.539 65.4666 72.8388C66.2018 73.2204 67.0963 73.2885 67.6231 72.9751C68.4808 72.4845 68.8974 71.4352 68.6279 70.4268C68.4318 69.7318 68.052 69.3366 67.1698 68.9414C66.7899 68.7779 66.2876 68.4917 66.067 68.3145C65.7117 68.0147 65.6627 67.9193 65.6994 67.4288C65.724 67.0063 65.822 66.8019 66.0793 66.5839C66.6062 66.1478 67.2678 66.2296 68.4073 66.8837C68.4563 66.9109 68.4931 66.7065 68.4931 66.434C68.4931 65.9979 68.4441 65.9161 68.0397 65.7253C67.4026 65.4255 66.4346 65.371 65.9813 65.5891Z" fill="black"/>
<path d="M40.6547 69.6909C40.618 73.5474 40.6057 73.8472 40.3852 74.1198C40.2504 74.2833 40.0053 74.4059 39.797 74.4059C39.4785 74.4059 39.4417 74.4468 39.4785 74.7739C39.5152 75.1009 39.5765 75.1555 39.9563 75.1963C40.2504 75.2236 40.4955 75.1418 40.7283 74.9374C41.3777 74.3651 41.4144 74.0925 41.4144 69.6364V65.5482H41.0468H40.6915L40.6547 69.6909Z" fill="black"/>
<path d="M43.2768 69.323L43.3136 73.1114L45.2495 73.1522L47.1732 73.1931V72.7707V72.3619H45.6416H44.11V70.9991C44.11 69.9771 44.1468 69.6364 44.2693 69.65C44.3428 69.6636 44.8207 69.6636 45.3108 69.65C46.1685 69.6364 46.193 69.6228 46.193 69.2957C46.193 68.955 46.1808 68.955 45.1515 68.955H44.11V67.6604V66.3795L45.6171 66.3386L47.112 66.2977L47.1487 65.9161L47.1855 65.5482H45.225H43.2523L43.2768 69.323Z" fill="black"/>
<path d="M56.8774 69.323L56.9142 73.1114L57.2573 73.1522L57.5881 73.1931V70.1951C57.5881 68.5326 57.6249 67.1835 57.6616 67.1835C57.7474 67.1835 57.8577 67.3198 58.6908 68.4099C59.0584 68.9005 59.5363 69.5137 59.7568 69.7727C59.9651 70.0316 60.247 70.3859 60.3695 70.5358C62.2809 73.0296 62.4034 73.1795 62.6853 73.1795H62.9793V69.3638V65.5482H62.6117H62.2442L62.2197 68.5598L62.1829 71.5851L61.2272 70.3723C60.7126 69.7045 59.6588 68.3554 58.8991 67.3606C57.7719 65.8889 57.4656 65.5618 57.1838 65.5618L56.8529 65.5482L56.8774 69.323Z" fill="black"/>
<path d="M0 93.9057C0 93.9739 0.0612639 94.0011 0.122528 93.9603C0.196045 93.9194 0.245056 93.8512 0.245056 93.8104C0.245056 93.7831 0.196045 93.7558 0.122528 93.7558C0.0612639 93.7558 0 93.824 0 93.9057Z" fill="black"/>
<path d="M3.67583 97.5715C3.67583 97.6396 3.7371 97.7078 3.79836 97.7078C3.87188 97.7078 3.92089 97.6396 3.92089 97.5715C3.92089 97.4897 3.87188 97.4352 3.79836 97.4352C3.7371 97.4352 3.67583 97.4897 3.67583 97.5715Z" fill="black"/>
<path d="M2.58534 98.7435C2.58534 98.8934 2.6221 98.9342 2.65886 98.8252C2.69562 98.7298 2.68336 98.6072 2.64661 98.5663C2.60985 98.5118 2.57309 98.5936 2.58534 98.7435Z" fill="black"/>
<path d="M3.00194 98.6617C3.03869 98.7298 3.12446 98.7979 3.19798 98.7979C3.25924 98.7979 3.30825 98.7298 3.30825 98.6617C3.30825 98.5799 3.22249 98.5254 3.11221 98.5254C3.01419 98.5254 2.96518 98.5799 3.00194 98.6617Z" fill="black"/>
<path d="M55.3581 99.1659C55.4438 99.2067 55.5541 99.1931 55.5909 99.1522C55.6399 99.1114 55.5664 99.0705 55.4316 99.0841C55.2968 99.0841 55.2601 99.125 55.3581 99.1659Z" fill="black"/>
<path d="M0.735168 99.3567C0.735168 99.4248 0.796432 99.4521 0.857696 99.4112C0.931213 99.3703 0.980224 99.3022 0.980224 99.2613C0.980224 99.234 0.931213 99.2068 0.857696 99.2068C0.796432 99.2068 0.735168 99.2749 0.735168 99.3567Z" fill="black"/>
<path d="M50.604 99.343C50.4447 99.4521 50.457 99.4793 50.6408 99.4793C50.751 99.4793 50.8491 99.4112 50.8491 99.343C50.8491 99.1795 50.8368 99.1795 50.604 99.343Z" fill="black"/>
<path d="M57.4656 99.3976C57.4656 99.5202 57.5268 99.6156 57.5881 99.6156C57.6616 99.6156 57.7106 99.5611 57.7106 99.493C57.7106 99.4112 57.6616 99.3158 57.5881 99.2749C57.5268 99.234 57.4656 99.2885 57.4656 99.3976Z" fill="black"/>
<path d="M2.26677 99.4793C2.59759 99.6428 2.69561 99.6428 2.69561 99.4793C2.69561 99.3975 2.54858 99.343 2.36479 99.3567C2.05847 99.3567 2.04622 99.3703 2.26677 99.4793Z" fill="black"/>
<path d="M0.637151 100.024C0.539129 100.202 0.539129 100.297 0.612645 100.297C0.686162 100.297 0.771932 100.202 0.820943 100.093C0.931218 99.7655 0.80869 99.7246 0.637151 100.024Z" fill="black"/>
<path d="M2.32803 100.12C2.32803 100.256 2.37704 100.311 2.42605 100.229C2.47506 100.147 2.56083 100.052 2.62209 99.9835C2.68336 99.929 2.6466 99.8881 2.53632 99.8881C2.4138 99.8881 2.32803 99.9971 2.32803 100.12Z" fill="black"/>
<path d="M1.71539 100.297C1.71539 100.46 2.05847 100.583 2.14424 100.447C2.16875 100.379 2.09523 100.297 1.96045 100.256C1.82567 100.215 1.71539 100.229 1.71539 100.297Z" fill="black"/>
<path d="M56.7304 100.297C56.5834 100.406 56.5956 100.433 56.8284 100.433C56.9755 100.433 57.098 100.365 57.098 100.297C57.098 100.12 56.9632 100.12 56.7304 100.297Z" fill="black"/>
<path d="M0.857697 100.569C0.857697 100.638 0.943466 100.706 1.04149 100.706C1.13951 100.706 1.22528 100.638 1.22528 100.569C1.22528 100.488 1.13951 100.433 1.04149 100.433C0.943466 100.433 0.857697 100.488 0.857697 100.569Z" fill="black"/>
<path d="M51.523 100.706C51.4862 100.774 51.5107 100.842 51.572 100.842C51.6455 100.842 51.7068 100.774 51.7068 100.706C51.7068 100.624 51.6822 100.569 51.6577 100.569C51.621 100.569 51.5597 100.624 51.523 100.706Z" fill="black"/>
</svg>
