<svg width="20" height="25" viewBox="0 0 20 25" fill="none" xmlns="http://www.w3.org/2000/svg">
<path d="M10.5462 8.28686C10.5462 13.1092 10.5136 16.9306 10.4647 17.4094C10.3587 18.4539 10.0653 19.1416 9.48667 19.6987C7.63666 21.4744 4.68641 20.5953 4.19741 18.1231C3.78177 15.9992 4.9472 14.1625 6.91947 13.8404C7.23731 13.7882 7.70186 13.7708 7.96265 13.7969L8.42719 13.8578V11.5859V9.32271L8.12565 9.25307C7.9545 9.21826 7.41661 9.19214 6.91947 9.19214C5.50954 9.20955 4.45006 9.55774 3.24388 10.4108C1.05157 11.9602 -0.252412 15.0591 0.0409834 18.0274C0.146932 19.159 0.309929 19.7596 0.782621 20.7955C1.14936 21.6137 1.27976 21.7965 2.0214 22.5886C3.58617 24.2686 5.23245 24.9998 7.48996 24.9998C8.96508 25.0085 10.0816 24.6691 11.1981 23.903C12.8852 22.7366 14.0506 20.6214 14.3684 18.158C14.4255 17.7488 14.4581 15.7119 14.4581 12.9961C14.4581 10.5327 14.4825 8.53059 14.5233 8.548C14.5559 8.5654 14.8493 8.76561 15.1671 8.99193C15.4931 9.21826 16.0229 9.53162 16.3489 9.6796C17.1068 10.0191 18.5493 10.4108 19.3725 10.4891L20 10.5501V8.40872V6.26737H19.7392C19.2584 6.26737 18.1011 5.91918 17.4735 5.5884C16.6097 5.13576 15.5991 4.04768 15.1671 3.10757C14.833 2.36767 14.5885 1.4885 14.4988 0.644146L14.4418 0.113161L13.8306 0.0522289C13.4883 0.0261154 12.6081 0 11.8746 0H10.5462V8.28686Z" fill="black"/>
</svg>
