<svg width="13" height="25" viewBox="0 0 13 25" fill="none" xmlns="http://www.w3.org/2000/svg">
<path d="M8.0735 0.112612C5.70958 0.503002 4.13831 1.84685 3.54909 3.97898C3.42283 4.45946 3.39477 4.78228 3.36671 6.17117L3.33164 7.80781H1.79544H0.259247V10.1727V12.5375H1.80246H3.34566V18.7688V25H5.66048H7.97529V18.7688V12.5375H10.0376H12.1069L12.149 12.2147C12.184 11.9219 12.6049 7.91291 12.6049 7.83784C12.6049 7.82282 11.672 7.80781 10.5286 7.80781H8.4593L8.48034 6.41892C8.50139 5.21021 8.51542 5.01501 8.62765 4.9024C8.73988 4.78228 8.94331 4.76727 10.6759 4.74474L12.6049 4.72222V2.36486V0L10.6268 0.00750732C9.41328 0.0150146 8.41721 0.0525513 8.0735 0.112612Z" fill="black"/>
</svg>
